<svg xmlns="http://www.w3.org/2000/svg" xmlns:xlink="http://www.w3.org/1999/xlink" xml:space="preserve" version="1.1" style="shape-rendering:geometricPrecision;text-rendering:geometricPrecision;image-rendering:optimizeQuality;" viewBox="0 0 1.101 1.101" x="0px" y="0px" fill-rule="evenodd" clip-rule="evenodd"><defs><style type="text/css">
   
    .fil0 {fill:black}
   
  </style></defs><g><g><path class="fil0" d="M0.228 0.873c0.178,0.178 0.467,0.178 0.645,0 0.178,-0.178 0.178,-0.467 0,-0.645 -0.178,-0.178 -0.467,-0.178 -0.645,0 -0.178,0.178 -0.178,0.467 0,0.645zm-0.169 -0.34c0.009,-0.258 0.216,-0.465 0.474,-0.474l0 -0.059c-0.29,0.009 -0.524,0.243 -0.533,0.533l0.059 0zm0.474 0.509c-0.258,-0.009 -0.465,-0.216 -0.474,-0.474l-0.059 0c0.009,0.29 0.243,0.524 0.533,0.533l0 -0.059zm0.509 -0.474c-0.009,0.258 -0.216,0.465 -0.474,0.474l0 0.059c0.29,-0.009 0.524,-0.243 0.533,-0.533l-0.059 0zm-0.474 -0.509c0.258,0.009 0.465,0.216 0.474,0.474l0.059 0c-0.009,-0.29 -0.243,-0.524 -0.533,-0.533l0 0.059zm-0.054 0.455c-0.01,0.01 -0.015,0.023 -0.015,0.037 0,0.013 0.005,0.026 0.015,0.036 0.01,0.01 0.023,0.015 0.037,0.015 0.013,0 0.026,-0.005 0.036,-0.015 0.01,-0.01 0.015,-0.023 0.015,-0.036 0,-0.014 -0.005,-0.027 -0.015,-0.037l0 0c-0.01,-0.01 -0.023,-0.015 -0.036,-0.015 -0.014,0 -0.027,0.005 -0.037,0.015zm0.037 -0.217l0 0.154c-0.015,0 -0.029,0.003 -0.041,0.008l0.041 -0.162zm0.253 0.253l-0.154 0.001c0,-0.015 -0.003,-0.029 -0.008,-0.041l0.162 0.04zm-0.151 -0.074l0.041 -0.069 -0.069 0.041 0.005 0.023 0.023 0.005zm-0.037 -0.064l0.12 -0.072c0.006,-0.003 0.013,-0.004 0.019,0 0.008,0.005 0.011,0.016 0.006,0.024l-0.072 0.121 0.192 0.048c0.006,0.002 0.012,0.007 0.013,0.013 0.003,0.01 -0.003,0.019 -0.013,0.022l-0.192 0.048 0.072 0.12c0.003,0.006 0.004,0.013 0,0.019 -0.005,0.008 -0.016,0.011 -0.024,0.006l-0.121 -0.072 -0.048 0.192c-0.002,0.006 -0.007,0.012 -0.013,0.013 -0.01,0.003 -0.019,-0.003 -0.022,-0.013l-0.048 -0.192 -0.121 0.072c-0.008,0.005 -0.019,0.002 -0.024,-0.006 -0.004,-0.006 -0.003,-0.013 0,-0.019l0.072 -0.12 -0.192 -0.048c-0.01,-0.003 -0.016,-0.012 -0.013,-0.022 0.001,-0.006 0.007,-0.011 0.013,-0.013l0.192 -0.048 -0.072 -0.121c-0.005,-0.008 -0.002,-0.019 0.006,-0.024 0.006,-0.004 0.013,-0.003 0.019,0l0.12 0.072 0.048 -0.192c0.003,-0.01 0.012,-0.016 0.022,-0.013 0.006,0.001 0.011,0.007 0.013,0.013l0.048 0.192zm-0.168 0.213l-0.041 0.069 0.069 -0.041 -0.005 -0.023 -0.023 -0.005zm0.028 -0.177l-0.069 -0.041 0.041 0.069 0.023 -0.005 0.005 -0.023zm0.149 0.205l0.069 0.041 -0.041 -0.069 -0.023 0.005 -0.005 0.023zm-0.323 -0.104l-0.005 0.001 0.162 0.041c-0.005,-0.012 -0.008,-0.026 -0.008,-0.04l0 -0.002 -0.149 0zm0.249 0.255l0.04 -0.162c-0.012,0.005 -0.026,0.008 -0.04,0.008l0 0.154zm-0.249 -0.255l0.149 0 -0.149 0zm0 0l0 0 0 0zm0.249 -0.378c0.004,0 0.008,0 0.012,0.001 0.02,0.005 0.034,0.02 0.039,0.039l0.037 0.146 0.079 -0.047c0.017,-0.011 0.038,-0.011 0.055,-0.001 0.025,0.015 0.034,0.048 0.019,0.073l-0.048 0.08 0.146 0.037c0.019,0.005 0.034,0.019 0.039,0.039 0.007,0.028 -0.011,0.057 -0.039,0.064l-0.146 0.037 0.047 0.079c0.011,0.017 0.011,0.038 0.001,0.055 -0.015,0.025 -0.048,0.034 -0.073,0.019l-0.08 -0.048 -0.037 0.146c-0.005,0.019 -0.019,0.034 -0.039,0.039 -0.004,0.001 -0.008,0.001 -0.012,0.001 -0.005,0 -0.009,0 -0.013,-0.001 -0.02,-0.005 -0.034,-0.02 -0.039,-0.039l-0.037 -0.146 -0.08 0.048c-0.025,0.015 -0.058,0.006 -0.073,-0.019 -0.01,-0.017 -0.01,-0.038 0.001,-0.055l0.047 -0.079 -0.146 -0.037c-0.028,-0.007 -0.046,-0.036 -0.039,-0.064 0.005,-0.02 0.02,-0.034 0.039,-0.039l0.146 -0.037 -0.048 -0.08c-0.015,-0.025 -0.006,-0.058 0.019,-0.073 0.017,-0.01 0.038,-0.01 0.055,0.001l0.079 0.047 0.037 -0.146c0.005,-0.019 0.019,-0.034 0.039,-0.039 0.004,-0.001 0.008,-0.001 0.013,-0.001zm0 0.396l0 0c0.004,0 0.008,-0.002 0.011,-0.005 0.003,-0.003 0.005,-0.007 0.005,-0.011 0,-0.004 -0.002,-0.008 -0.004,-0.011l-0.001 -0.001c-0.003,-0.003 -0.007,-0.005 -0.011,-0.005l0 0 -0.001 0c-0.004,0 -0.008,0.002 -0.011,0.005l-0.001 0.001c-0.002,0.003 -0.004,0.007 -0.004,0.011 0,0.004 0.002,0.008 0.005,0.011 0.003,0.003 0.007,0.005 0.011,0.005l0.001 0z"></path></g></g></svg>